<svg width="120" height="120" viewBox="0 0 120 120" fill="none" xmlns="http://www.w3.org/2000/svg">
  <!-- Background Circle -->
  <circle cx="60" cy="60" r="60" fill="url(#logoGradient)"/>
  
  <!-- Mountain Peaks -->
  <path d="M20 70 L35 45 L50 55 L65 35 L80 50 L95 40 L100 70 Z" fill="white" opacity="0.9"/>
  <path d="M15 75 L30 55 L45 60 L60 45 L75 55 L90 50 L105 75 Z" fill="white" opacity="0.7"/>
  
  <!-- Airplane -->
  <g transform="translate(40, 25)">
    <path d="M0 10 L15 5 L40 15 L35 20 L15 15 L5 25 L0 20 Z" fill="white"/>
    <circle cx="20" cy="12" r="2" fill="#007bff"/>
  </g>
  
  <!-- Curved Path -->
  <path d="M25 85 Q40 75 55 85 T85 85" stroke="white" stroke-width="3" fill="none" opacity="0.8" stroke-dasharray="5,5">
    <animate attributeName="stroke-dashoffset" values="0;10" dur="2s" repeatCount="indefinite"/>
  </path>
  
  <!-- Location Pins -->
  <g fill="white">
    <circle cx="30" cy="85" r="3"/>
    <circle cx="55" cy="85" r="3"/>
    <circle cx="80" cy="85" r="3"/>
  </g>
  
  <!-- Text -->
  <text x="60" y="105" text-anchor="middle" fill="white" font-family="Arial, sans-serif" font-size="12" font-weight="bold">
    GOOD TO GO
  </text>
  
  <!-- Gradient Definition -->
  <defs>
    <linearGradient id="logoGradient" x1="0%" y1="0%" x2="100%" y2="100%">
      <stop offset="0%" style="stop-color:#667eea;stop-opacity:1" />
      <stop offset="100%" style="stop-color:#764ba2;stop-opacity:1" />
    </linearGradient>
  </defs>
</svg>
